<svg width="32" height="32" viewBox="0 0 32 32" fill="none" xmlns="http://www.w3.org/2000/svg">
<circle cx="16" cy="16" r="16" fill="white"/>
<path d="M8.08367 15.4935C8.0837 15.343 8.11381 15.1941 8.17227 15.0552C8.23073 14.9163 8.31638 14.7902 8.42432 14.6841C8.53226 14.578 8.66036 14.494 8.80125 14.437C8.94215 14.3799 9.09306 14.3509 9.24534 14.3516L11.1713 14.3578C11.4783 14.3578 11.7729 14.4783 11.99 14.6928C12.2071 14.9072 12.3291 15.1981 12.3291 15.5014V22.6951C12.546 22.6316 12.8236 22.5639 13.1291 22.4928C13.3408 22.4436 13.5294 22.3253 13.6644 22.157C13.7994 21.9886 13.8729 21.7802 13.8729 21.5654V12.6429C13.8729 12.3395 13.9949 12.0486 14.212 11.8341C14.4292 11.6196 14.7237 11.499 15.0308 11.499H16.9625C17.2696 11.499 17.5641 11.6195 17.7812 11.834C17.9983 12.0485 18.1203 12.3393 18.1204 12.6426V20.9242C18.1204 20.9242 18.6037 20.7311 19.0741 20.5348C19.249 20.4618 19.3981 20.3395 19.5031 20.1833C19.608 20.027 19.664 19.8437 19.6642 19.6562V9.7836C19.6642 9.48032 19.7861 9.18946 20.0032 8.97499C20.2203 8.76052 20.5148 8.64 20.8218 8.63994H22.7516C23.0584 8.64023 23.3527 8.76086 23.5696 8.9753C23.7864 9.18975 23.9083 9.48047 23.9083 9.7836V17.9135C25.5813 16.7159 27.2769 15.2754 28.6224 13.5434C28.8176 13.292 28.9468 12.9967 28.9984 12.684C29.05 12.3713 29.0225 12.0508 28.9182 11.7512C28.2954 9.98123 27.3053 8.35918 26.0114 6.98885C24.7174 5.61852 23.1481 4.53008 21.4039 3.79319C19.6596 3.0563 17.7789 2.68718 15.8819 2.70945C13.985 2.73172 12.1136 3.14489 10.3876 3.92253C8.66156 4.70017 7.1189 5.82514 5.85831 7.22546C4.59772 8.62579 3.64696 10.2706 3.06688 12.0547C2.4868 13.8388 2.29016 15.7229 2.48956 17.5863C2.68896 19.4498 3.27999 21.2516 4.22485 22.8765C4.38946 23.1568 4.63165 23.3849 4.92296 23.5339C5.21426 23.683 5.54258 23.7468 5.86935 23.718C6.23439 23.6862 6.6889 23.6414 7.22928 23.5788C7.46426 23.5521 7.68111 23.441 7.8386 23.2667C7.99609 23.0924 8.08323 22.867 8.08345 22.6334V15.4935" fill="#0C598B"/>
<path d="M8.04297 27.0303C10.0771 28.4919 12.4809 29.3693 14.9884 29.5652C17.496 29.7612 20.0096 29.2682 22.2511 28.1407C24.4925 27.0132 26.3746 25.2952 27.6889 23.1767C29.0032 21.0583 29.6986 18.622 29.6982 16.1374C29.6982 15.8266 29.6835 15.5206 29.6626 15.2156C24.6808 22.5547 15.4823 25.9856 8.04297 27.0303Z" fill="#979695"/>
</svg>
